<?xml version="1.0" encoding="UTF-8" standalone="no"?>
<svg
   xmlns:dc="http://purl.org/dc/elements/1.1/"
   xmlns:cc="http://creativecommons.org/ns#"
   xmlns:rdf="http://www.w3.org/1999/02/22-rdf-syntax-ns#"
   xmlns:svg="http://www.w3.org/2000/svg"
   xmlns="http://www.w3.org/2000/svg"
   xmlns:sodipodi="http://sodipodi.sourceforge.net/DTD/sodipodi-0.dtd"
   xmlns:inkscape="http://www.inkscape.org/namespaces/inkscape"
   width="67"
   height="67"
   viewBox="0 0 17.727091 17.727094"
   version="1.1"
   id="svg5408"
   inkscape:version="1.0.2 (e86c8708, 2021-01-15)"
   sodipodi:docname="spidermonkey-small.svg">
  <style>
    .spidermonkey-circle {
      fill: black;
    }
    .spidermonkey-path {
      fill: white;
    }
    @media (prefers-color-scheme: dark) {
      .spidermonkey-circle {
        fill: #ffd681;
      }
      .spidermonkey-path {
        fill: #110b2b;
      }
    }
  </style>
  <defs
     id="defs5402">
    <rect
       x="42.527985"
       y="195.34833"
       width="114.54235"
       height="26.371309"
       id="rect1203-74-2-8" />
    <rect
       x="42.527985"
       y="195.34833"
       width="114.54235"
       height="26.371309"
       id="rect5393" />
  </defs>
  <metadata
     id="metadata5405">
    <rdf:RDF>
      <cc:Work
         rdf:about="">
        <dc:format>image/svg+xml</dc:format>
        <dc:type
           rdf:resource="http://purl.org/dc/dcmitype/StillImage" />
        <dc:title></dc:title>
      </cc:Work>
    </rdf:RDF>
  </metadata>
  <g
     inkscape:label="Layer 1"
     inkscape:groupmode="layer"
     id="layer1">
    <ellipse
       class="spidermonkey-circle"
       id="path14-8-2-0-3-6-5-9-9-7-3"
       cx="8.8855553"
       cy="8.8927374"
       inkscape:label="path14"
       inkscape:export-xdpi="80.309998"
       inkscape:export-ydpi="80.309998"
       rx="8.806778"
       ry="8.7312002" />
    <path
       id="path81-7-3-6-2-0-7-1-3-4-6"
       class="spidermonkey-path"
       inkscape:label="path81"
       d="M 6.1386964,4.2587112 C 5.7273191,4.2441685 5.2751126,4.3851662 4.6645911,4.6731434 4.0145422,4.8823704 3.6426372,5.4476885 4.4067462,5.4473051 l -0.018559,0.4974473 -0.4817241,0.1848938 -0.01795,0.4832939 c 0,0 -0.074162,0.5616484 0.537382,0.5292101 -0.079766,0.018985 -0.1457135,0.058658 -0.056285,0.1480988 0.1658786,0.16583 0.3844276,0.1104884 1.1769526,0.1289255 0.7925495,0.018437 0.8779258,0.900245 0.8779258,0.900245 0,0 0.1780057,1.444497 0.151561,2.8519995 C 5.7174126,10.714502 4.8601207,10.310007 4.5934894,10.36833 4.0036987,10.497347 3.4998501,11.079404 4.0035952,11.91633 4.4648743,12.68269 5.2443655,13.22822 6.029236,13.720288 5.7949395,14.107649 5.5041453,14.312616 4.9154805,14.169312 4.619502,14.097262 4.643671,13.930367 3.8426027,13.49106 c -1.4748723,-0.593697 -1.2207453,-0.169961 -0.85843,0.179545 0.7601113,0.542348 1.1342494,1.034659 1.6970478,1.26469 0.5532571,0.226131 1.2933737,0.201859 2.2372591,-0.604674 0.015577,-0.01673 0.028903,-0.03359 0.044054,-0.05032 -0.010709,0.01241 -0.019532,0.02501 -0.030485,0.03742 1.2075107,0.751477 2.7100311,0.984344 4.0949824,0.677936 0.06783,-0.02215 0.287655,-0.05075 0.269163,-0.07703 0.01138,0.0012 0.02093,0.003 0.03237,0.0043 0.0062,-0.0362 1.382505,0.147716 2.397625,-0.263814 0.983546,-0.398727 1.625484,-1.14533 1.761505,-1.9203 C 16.046709,9.553838 12.880807,9.300976 12.465907,9.171728 12.149337,9.085878 11.832542,9.000057 11.515973,8.9141997 11.336294,8.4648956 11.09646,8.0250596 10.789614,7.5441752 10.594906,7.2390391 10.364546,6.9911308 10.114502,6.7891995 c 3.47e-4,2.799e-4 0.0024,0.00122 0.0024,0.00183 0,0 0.09302,-0.2939948 0.447138,-0.5986989 0.07149,-0.057015 1.26315,-0.9675736 3.430251,-0.045575 l 0.152821,1.4766248 v 3.164e-4 l 0.98452,-0.05093 -0.118861,-2.0029993 C 14.664734,5.1619198 11.70986,3.9357946 9.5760977,5.5636775 9.2627887,5.8349637 9.066383,6.2126858 9.066383,6.2126858 c 0.0024,6.085e-4 0.0049,0.00243 0.0072,0.00365 C 8.713939,6.0880615 8.3555733,6.0172036 8.0299494,5.9792464 c -2.13e-4,-0.00122 -4.138e-4,-0.00243 -6.085e-4,-0.00365 0,0 -0.4142068,-1.1403835 -1.1687809,-1.5206493 C 6.617804,4.3325933 6.3854668,4.2677715 6.1386417,4.259052 Z M 5.6638847,5.778101 c 4.625e-4,0.00243 6.085e-4,0.00426 0.00122,0.00663 -4.381e-4,-0.00243 -6.085e-4,-0.00426 -0.00122,-0.00663 z m 2.6652176,1.8923101 c 0.003,0.00122 0.0061,0.00304 0.0091,0.00426 -0.003,-2.495e-4 -0.0061,-0.00122 -0.0088,-0.00122 -4.2e-5,-0.00122 -2.73e-4,-0.00183 -3.16e-4,-0.00304 z M 11.736402,9.593858 c 0.0098,0.03821 0.01911,0.076609 0.02799,0.1150875 -0.0088,-0.03864 -0.01838,-0.076909 -0.02799,-0.1150875 z M 8.2391683,9.683477 c 0.320154,0.537712 0.5538237,1.019338 0.6556167,1.615603 -0.05008,0.362103 -0.125786,0.720493 -0.2352027,1.058415 0,0 -0.273209,-0.165453 -0.6653646,-0.39431 0.072975,-0.449097 0.1209847,-0.933145 0.1804946,-1.477878 0.01935,-0.259317 0.04192,-0.532692 0.06446,-0.80183 z m 3.5604367,0.191179 c 0.0024,0.01235 0.0055,0.02446 0.0078,0.03681 0.01327,0.06896 0.02422,0.140267 0.03645,0.209421 0.342764,0.09643 0.687026,0.190651 1.029797,0.287084 0,0 1.695587,0.3304 1.437,2.040421 -0.24346,1.609998 -2.672878,1.482928 -2.664268,1.429138 0.290909,-1.817782 0.34818,-3.004179 0.153131,-4.002853 z" />
  </g>
</svg>
